<mxfile host="65bd71144e">
    <diagram id="3UM1Va-yNBoQVojBkCAc" name="Page-1">
        <mxGraphModel dx="2217" dy="979" grid="1" gridSize="10" guides="1" tooltips="1" connect="1" arrows="1" fold="1" page="1" pageScale="1" pageWidth="850" pageHeight="1100" background="#ffffff" math="0" shadow="0">
            <root>
                <mxCell id="0"/>
                <mxCell id="1" parent="0"/>
                <mxCell id="2" value="Socio" style="swimlane;fontStyle=1;align=center;verticalAlign=top;childLayout=stackLayout;horizontal=1;startSize=55;horizontalStack=0;resizeParent=1;resizeParentMax=0;resizeLast=0;collapsible=0;marginBottom=0;html=1;fillColor=none;strokeColor=#000000;fontColor=#000000;" parent="1" vertex="1">
                    <mxGeometry x="30" y="100" width="200" height="188" as="geometry"/>
                </mxCell>
                <mxCell id="3" value="- nombre" style="text;html=1;strokeColor=none;fillColor=none;align=left;verticalAlign=middle;spacingLeft=4;spacingRight=4;overflow=hidden;rotatable=0;points=[[0,0.5],[1,0.5]];portConstraint=eastwest;fontColor=#000000;" parent="2" vertex="1">
                    <mxGeometry y="55" width="200" height="25" as="geometry"/>
                </mxCell>
                <mxCell id="4" value="- direccion" style="text;html=1;strokeColor=none;fillColor=none;align=left;verticalAlign=middle;spacingLeft=4;spacingRight=4;overflow=hidden;rotatable=0;points=[[0,0.5],[1,0.5]];portConstraint=eastwest;fontColor=#000000;" parent="2" vertex="1">
                    <mxGeometry y="80" width="200" height="20" as="geometry"/>
                </mxCell>
                <mxCell id="104" value="- DNI" style="text;html=1;strokeColor=none;fillColor=none;align=left;verticalAlign=middle;spacingLeft=4;spacingRight=4;overflow=hidden;rotatable=0;points=[[0,0.5],[1,0.5]];portConstraint=eastwest;fontColor=#000000;" vertex="1" parent="2">
                    <mxGeometry y="100" width="200" height="20" as="geometry"/>
                </mxCell>
                <mxCell id="103" value="- telefono" style="text;html=1;strokeColor=none;fillColor=none;align=left;verticalAlign=middle;spacingLeft=4;spacingRight=4;overflow=hidden;rotatable=0;points=[[0,0.5],[1,0.5]];portConstraint=eastwest;fontColor=#000000;" vertex="1" parent="2">
                    <mxGeometry y="120" width="200" height="20" as="geometry"/>
                </mxCell>
                <mxCell id="102" value="- fecha" style="text;html=1;strokeColor=none;fillColor=none;align=left;verticalAlign=middle;spacingLeft=4;spacingRight=4;overflow=hidden;rotatable=0;points=[[0,0.5],[1,0.5]];portConstraint=eastwest;fontColor=#000000;" vertex="1" parent="2">
                    <mxGeometry y="140" width="200" height="20" as="geometry"/>
                </mxCell>
                <mxCell id="156" value="+ comprarAmarre()" style="text;html=1;strokeColor=none;fillColor=none;align=left;verticalAlign=middle;spacingLeft=4;spacingRight=4;overflow=hidden;rotatable=0;points=[[0,0.5],[1,0.5]];portConstraint=eastwest;fontColor=#000000;" vertex="1" parent="2">
                    <mxGeometry y="160" width="200" height="20" as="geometry"/>
                </mxCell>
                <mxCell id="7" value="" style="line;strokeWidth=1;fillColor=none;align=left;verticalAlign=middle;spacingTop=-1;spacingLeft=3;spacingRight=3;rotatable=0;labelPosition=right;points=[];portConstraint=eastwest;fontColor=#000000;strokeColor=#000000;" parent="2" vertex="1">
                    <mxGeometry y="180" width="200" height="8" as="geometry"/>
                </mxCell>
                <mxCell id="105" value="Embarcacion" style="swimlane;fontStyle=1;align=center;verticalAlign=top;childLayout=stackLayout;horizontal=1;startSize=55;horizontalStack=0;resizeParent=1;resizeParentMax=0;resizeLast=0;collapsible=0;marginBottom=0;html=1;fillColor=none;strokeColor=#000000;fontColor=#000000;" vertex="1" parent="1">
                    <mxGeometry x="679.3100000000001" y="90" width="200" height="148" as="geometry"/>
                </mxCell>
                <mxCell id="106" value="- matricula" style="text;html=1;strokeColor=none;fillColor=none;align=left;verticalAlign=middle;spacingLeft=4;spacingRight=4;overflow=hidden;rotatable=0;points=[[0,0.5],[1,0.5]];portConstraint=eastwest;fontColor=#000000;" vertex="1" parent="105">
                    <mxGeometry y="55" width="200" height="25" as="geometry"/>
                </mxCell>
                <mxCell id="107" value="- nombre" style="text;html=1;strokeColor=none;fillColor=none;align=left;verticalAlign=middle;spacingLeft=4;spacingRight=4;overflow=hidden;rotatable=0;points=[[0,0.5],[1,0.5]];portConstraint=eastwest;fontColor=#000000;" vertex="1" parent="105">
                    <mxGeometry y="80" width="200" height="20" as="geometry"/>
                </mxCell>
                <mxCell id="108" value="- tipo" style="text;html=1;strokeColor=none;fillColor=none;align=left;verticalAlign=middle;spacingLeft=4;spacingRight=4;overflow=hidden;rotatable=0;points=[[0,0.5],[1,0.5]];portConstraint=eastwest;fontColor=#000000;" vertex="1" parent="105">
                    <mxGeometry y="100" width="200" height="20" as="geometry"/>
                </mxCell>
                <mxCell id="109" value="- dimensiones" style="text;html=1;strokeColor=none;fillColor=none;align=left;verticalAlign=middle;spacingLeft=4;spacingRight=4;overflow=hidden;rotatable=0;points=[[0,0.5],[1,0.5]];portConstraint=eastwest;fontColor=#000000;" vertex="1" parent="105">
                    <mxGeometry y="120" width="200" height="20" as="geometry"/>
                </mxCell>
                <mxCell id="111" value="" style="line;strokeWidth=1;fillColor=none;align=left;verticalAlign=middle;spacingTop=-1;spacingLeft=3;spacingRight=3;rotatable=0;labelPosition=right;points=[];portConstraint=eastwest;fontColor=#000000;strokeColor=#000000;" vertex="1" parent="105">
                    <mxGeometry y="140" width="200" height="8" as="geometry"/>
                </mxCell>
                <mxCell id="113" value="Amarre" style="swimlane;fontStyle=1;align=center;verticalAlign=top;childLayout=stackLayout;horizontal=1;startSize=55;horizontalStack=0;resizeParent=1;resizeParentMax=0;resizeLast=0;collapsible=0;marginBottom=0;html=1;fillColor=none;strokeColor=#000000;fontColor=#000000;" vertex="1" parent="1">
                    <mxGeometry x="310.11" y="100" width="200" height="168" as="geometry"/>
                </mxCell>
                <mxCell id="114" value="- numero" style="text;html=1;strokeColor=none;fillColor=none;align=left;verticalAlign=middle;spacingLeft=4;spacingRight=4;overflow=hidden;rotatable=0;points=[[0,0.5],[1,0.5]];portConstraint=eastwest;fontColor=#000000;" vertex="1" parent="113">
                    <mxGeometry y="55" width="200" height="25" as="geometry"/>
                </mxCell>
                <mxCell id="115" value="- contadorAgua" style="text;html=1;strokeColor=none;fillColor=none;align=left;verticalAlign=middle;spacingLeft=4;spacingRight=4;overflow=hidden;rotatable=0;points=[[0,0.5],[1,0.5]];portConstraint=eastwest;fontColor=#000000;" vertex="1" parent="113">
                    <mxGeometry y="80" width="200" height="20" as="geometry"/>
                </mxCell>
                <mxCell id="116" value="- contadorLuz" style="text;html=1;strokeColor=none;fillColor=none;align=left;verticalAlign=middle;spacingLeft=4;spacingRight=4;overflow=hidden;rotatable=0;points=[[0,0.5],[1,0.5]];portConstraint=eastwest;fontColor=#000000;" vertex="1" parent="113">
                    <mxGeometry y="100" width="200" height="20" as="geometry"/>
                </mxCell>
                <mxCell id="117" value="- servicios" style="text;html=1;strokeColor=none;fillColor=none;align=left;verticalAlign=middle;spacingLeft=4;spacingRight=4;overflow=hidden;rotatable=0;points=[[0,0.5],[1,0.5]];portConstraint=eastwest;fontColor=#000000;" vertex="1" parent="113">
                    <mxGeometry y="120" width="200" height="20" as="geometry"/>
                </mxCell>
                <mxCell id="157" value="+ asignarEmbarcacion()" style="text;html=1;strokeColor=none;fillColor=none;align=left;verticalAlign=middle;spacingLeft=4;spacingRight=4;overflow=hidden;rotatable=0;points=[[0,0.5],[1,0.5]];portConstraint=eastwest;fontColor=#000000;" vertex="1" parent="113">
                    <mxGeometry y="140" width="200" height="20" as="geometry"/>
                </mxCell>
                <mxCell id="118" value="" style="line;strokeWidth=1;fillColor=none;align=left;verticalAlign=middle;spacingTop=-1;spacingLeft=3;spacingRight=3;rotatable=0;labelPosition=right;points=[];portConstraint=eastwest;fontColor=#000000;strokeColor=#000000;" vertex="1" parent="113">
                    <mxGeometry y="160" width="200" height="8" as="geometry"/>
                </mxCell>
                <mxCell id="120" value="Zona" style="swimlane;fontStyle=1;align=center;verticalAlign=top;childLayout=stackLayout;horizontal=1;startSize=55;horizontalStack=0;resizeParent=1;resizeParentMax=0;resizeLast=0;collapsible=0;marginBottom=0;html=1;fillColor=none;strokeColor=#000000;fontColor=#000000;" vertex="1" parent="1">
                    <mxGeometry x="310.11" y="400" width="200" height="168" as="geometry"/>
                </mxCell>
                <mxCell id="121" value="- letra" style="text;html=1;strokeColor=none;fillColor=none;align=left;verticalAlign=middle;spacingLeft=4;spacingRight=4;overflow=hidden;rotatable=0;points=[[0,0.5],[1,0.5]];portConstraint=eastwest;fontColor=#000000;" vertex="1" parent="120">
                    <mxGeometry y="55" width="200" height="25" as="geometry"/>
                </mxCell>
                <mxCell id="123" value="- tipoBarcos" style="text;html=1;strokeColor=none;fillColor=none;align=left;verticalAlign=middle;spacingLeft=4;spacingRight=4;overflow=hidden;rotatable=0;points=[[0,0.5],[1,0.5]];portConstraint=eastwest;fontColor=#000000;" vertex="1" parent="120">
                    <mxGeometry y="80" width="200" height="20" as="geometry"/>
                </mxCell>
                <mxCell id="124" value="- numeroBarcos" style="text;html=1;strokeColor=none;fillColor=none;align=left;verticalAlign=middle;spacingLeft=4;spacingRight=4;overflow=hidden;rotatable=0;points=[[0,0.5],[1,0.5]];portConstraint=eastwest;fontColor=#000000;" vertex="1" parent="120">
                    <mxGeometry y="100" width="200" height="20" as="geometry"/>
                </mxCell>
                <mxCell id="129" value="- profundidad" style="text;html=1;strokeColor=none;fillColor=none;align=left;verticalAlign=middle;spacingLeft=4;spacingRight=4;overflow=hidden;rotatable=0;points=[[0,0.5],[1,0.5]];portConstraint=eastwest;fontColor=#000000;" vertex="1" parent="120">
                    <mxGeometry y="120" width="200" height="20" as="geometry"/>
                </mxCell>
                <mxCell id="128" value="- ancho" style="text;html=1;strokeColor=none;fillColor=none;align=left;verticalAlign=middle;spacingLeft=4;spacingRight=4;overflow=hidden;rotatable=0;points=[[0,0.5],[1,0.5]];portConstraint=eastwest;fontColor=#000000;" vertex="1" parent="120">
                    <mxGeometry y="140" width="200" height="20" as="geometry"/>
                </mxCell>
                <mxCell id="125" value="" style="line;strokeWidth=1;fillColor=none;align=left;verticalAlign=middle;spacingTop=-1;spacingLeft=3;spacingRight=3;rotatable=0;labelPosition=right;points=[];portConstraint=eastwest;fontColor=#000000;strokeColor=#000000;" vertex="1" parent="120">
                    <mxGeometry y="160" width="200" height="8" as="geometry"/>
                </mxCell>
                <mxCell id="130" value="Empleado" style="swimlane;fontStyle=1;align=center;verticalAlign=top;childLayout=stackLayout;horizontal=1;startSize=55;horizontalStack=0;resizeParent=1;resizeParentMax=0;resizeLast=0;collapsible=0;marginBottom=0;html=1;fillColor=none;strokeColor=#000000;fontColor=#000000;" vertex="1" parent="1">
                    <mxGeometry x="-20" y="400" width="200" height="173" as="geometry"/>
                </mxCell>
                <mxCell id="138" value="- codigo" style="text;html=1;strokeColor=none;fillColor=none;align=left;verticalAlign=middle;spacingLeft=4;spacingRight=4;overflow=hidden;rotatable=0;points=[[0,0.5],[1,0.5]];portConstraint=eastwest;fontColor=#000000;" vertex="1" parent="130">
                    <mxGeometry y="55" width="200" height="25" as="geometry"/>
                </mxCell>
                <mxCell id="131" value="- nombre" style="text;html=1;strokeColor=none;fillColor=none;align=left;verticalAlign=middle;spacingLeft=4;spacingRight=4;overflow=hidden;rotatable=0;points=[[0,0.5],[1,0.5]];portConstraint=eastwest;fontColor=#000000;" vertex="1" parent="130">
                    <mxGeometry y="80" width="200" height="25" as="geometry"/>
                </mxCell>
                <mxCell id="132" value="- direccion" style="text;html=1;strokeColor=none;fillColor=none;align=left;verticalAlign=middle;spacingLeft=4;spacingRight=4;overflow=hidden;rotatable=0;points=[[0,0.5],[1,0.5]];portConstraint=eastwest;fontColor=#000000;" vertex="1" parent="130">
                    <mxGeometry y="105" width="200" height="20" as="geometry"/>
                </mxCell>
                <mxCell id="133" value="- especialidad" style="text;html=1;strokeColor=none;fillColor=none;align=left;verticalAlign=middle;spacingLeft=4;spacingRight=4;overflow=hidden;rotatable=0;points=[[0,0.5],[1,0.5]];portConstraint=eastwest;fontColor=#000000;" vertex="1" parent="130">
                    <mxGeometry y="125" width="200" height="20" as="geometry"/>
                </mxCell>
                <mxCell id="161" value="+ barcosEncargar()" style="text;html=1;strokeColor=none;fillColor=none;align=left;verticalAlign=middle;spacingLeft=4;spacingRight=4;overflow=hidden;rotatable=0;points=[[0,0.5],[1,0.5]];portConstraint=eastwest;fontColor=#000000;" vertex="1" parent="130">
                    <mxGeometry y="145" width="200" height="20" as="geometry"/>
                </mxCell>
                <mxCell id="136" value="" style="line;strokeWidth=1;fillColor=none;align=left;verticalAlign=middle;spacingTop=-1;spacingLeft=3;spacingRight=3;rotatable=0;labelPosition=right;points=[];portConstraint=eastwest;fontColor=#000000;strokeColor=#000000;" vertex="1" parent="130">
                    <mxGeometry y="165" width="200" height="8" as="geometry"/>
                </mxCell>
                <mxCell id="139" value="" style="endArrow=none;html=1;rounded=0;align=center;verticalAlign=top;endFill=0;labelBackgroundColor=none;entryX=-0.001;entryY=0.051;entryDx=0;entryDy=0;entryPerimeter=0;strokeColor=#000000;exitX=1.009;exitY=0.05;exitDx=0;exitDy=0;exitPerimeter=0;" edge="1" parent="1" source="2" target="113">
                    <mxGeometry relative="1" as="geometry">
                        <mxPoint x="130" y="350" as="sourcePoint"/>
                        <mxPoint x="290" y="350" as="targetPoint"/>
                    </mxGeometry>
                </mxCell>
                <mxCell id="140" value="1" style="resizable=0;html=1;align=left;verticalAlign=bottom;labelBackgroundColor=none;fontColor=#000000;" connectable="0" vertex="1" parent="139">
                    <mxGeometry x="-1" relative="1" as="geometry"/>
                </mxCell>
                <mxCell id="142" value="0..*" style="resizable=0;html=1;align=right;verticalAlign=bottom;labelBackgroundColor=none;fontColor=#000000;" connectable="0" vertex="1" parent="139">
                    <mxGeometry x="1" relative="1" as="geometry"/>
                </mxCell>
                <mxCell id="146" value="" style="endArrow=none;html=1;rounded=0;align=center;verticalAlign=top;endFill=0;labelBackgroundColor=none;strokeColor=#000000;fontColor=#000000;entryX=0.997;entryY=0.087;entryDx=0;entryDy=0;exitX=-0.008;exitY=0.173;exitDx=0;exitDy=0;exitPerimeter=0;entryPerimeter=0;" edge="1" parent="1" source="105" target="113">
                    <mxGeometry relative="1" as="geometry">
                        <mxPoint x="679.3100000000001" y="30" as="sourcePoint"/>
                        <mxPoint x="520.1100000000002" y="65.18399999999997" as="targetPoint"/>
                    </mxGeometry>
                </mxCell>
                <mxCell id="147" value="1" style="resizable=0;html=1;align=left;verticalAlign=bottom;labelBackgroundColor=none;fontColor=#000000;" connectable="0" vertex="1" parent="146">
                    <mxGeometry x="-1" relative="1" as="geometry">
                        <mxPoint x="-19" as="offset"/>
                    </mxGeometry>
                </mxCell>
                <mxCell id="149" value="1" style="resizable=0;html=1;align=right;verticalAlign=bottom;labelBackgroundColor=none;fontColor=#000000;" connectable="0" vertex="1" parent="146">
                    <mxGeometry x="1" relative="1" as="geometry">
                        <mxPoint x="16" as="offset"/>
                    </mxGeometry>
                </mxCell>
                <mxCell id="158" value="" style="endArrow=none;html=1;rounded=0;align=center;verticalAlign=top;endFill=0;labelBackgroundColor=none;strokeColor=#000000;fontColor=#000000;entryX=0.5;entryY=1;entryDx=0;entryDy=0;" edge="1" parent="1" source="120" target="113">
                    <mxGeometry relative="1" as="geometry">
                        <mxPoint x="687.71" y="125.60399999999993" as="sourcePoint"/>
                        <mxPoint x="519.51" y="124.61599999999999" as="targetPoint"/>
                    </mxGeometry>
                </mxCell>
                <mxCell id="159" value="1" style="resizable=0;html=1;align=left;verticalAlign=bottom;labelBackgroundColor=none;fontColor=#000000;" connectable="0" vertex="1" parent="158">
                    <mxGeometry x="-1" relative="1" as="geometry">
                        <mxPoint x="-19" as="offset"/>
                    </mxGeometry>
                </mxCell>
                <mxCell id="160" value="0..*" style="resizable=0;html=1;align=right;verticalAlign=bottom;labelBackgroundColor=none;fontColor=#000000;" connectable="0" vertex="1" parent="158">
                    <mxGeometry x="1" relative="1" as="geometry">
                        <mxPoint x="-10" y="22" as="offset"/>
                    </mxGeometry>
                </mxCell>
                <mxCell id="162" value="" style="endArrow=none;html=1;rounded=0;align=center;verticalAlign=top;endFill=0;labelBackgroundColor=none;strokeColor=#000000;fontColor=#000000;entryX=1.002;entryY=0.177;entryDx=0;entryDy=0;exitX=-0.005;exitY=0.182;exitDx=0;exitDy=0;exitPerimeter=0;entryPerimeter=0;" edge="1" parent="1" source="120" target="130">
                    <mxGeometry relative="1" as="geometry">
                        <mxPoint x="420.1100000000001" y="410" as="sourcePoint"/>
                        <mxPoint x="420.1100000000001" y="278" as="targetPoint"/>
                    </mxGeometry>
                </mxCell>
                <mxCell id="163" value="1..*" style="resizable=0;html=1;align=left;verticalAlign=bottom;labelBackgroundColor=none;fontColor=#000000;" connectable="0" vertex="1" parent="162">
                    <mxGeometry x="-1" relative="1" as="geometry">
                        <mxPoint x="-19" y="-1" as="offset"/>
                    </mxGeometry>
                </mxCell>
                <mxCell id="164" value="1..*" style="resizable=0;html=1;align=right;verticalAlign=bottom;labelBackgroundColor=none;fontColor=#000000;" connectable="0" vertex="1" parent="162">
                    <mxGeometry x="1" relative="1" as="geometry">
                        <mxPoint x="29" y="-1" as="offset"/>
                    </mxGeometry>
                </mxCell>
            </root>
        </mxGraphModel>
    </diagram>
</mxfile>